<?xml version="1.0" encoding="UTF-8" standalone="no"?>
<svg
   xmlns:dc="http://purl.org/dc/elements/1.1/"
   xmlns:cc="http://creativecommons.org/ns#"
   xmlns:rdf="http://www.w3.org/1999/02/22-rdf-syntax-ns#"
   xmlns:svg="http://www.w3.org/2000/svg"
   xmlns="http://www.w3.org/2000/svg"
   id="svg8"
   version="1.1"
   viewBox="0 0 210 297"
   height="297mm"
   width="210mm">
  <defs
     id="defs2" />
  <metadata
     id="metadata5">
    <rdf:RDF>
      <cc:Work
         rdf:about="">
        <dc:format>image/svg+xml</dc:format>
        <dc:type
           rdf:resource="http://purl.org/dc/dcmitype/StillImage" />
        <dc:title></dc:title>
      </cc:Work>
    </rdf:RDF>
  </metadata>
  <g
     id="data">
    <path
       style="stroke-width:0.26458332"
       d="M 90.714285,95.916668 57.992183,85.195107 30.609359,106.07257 30.694484,71.638862 2.3770743,52.047741 35.151786,41.488098 45.033489,8.5026508 65.204249,36.410145 99.628887,35.615139 79.320391,63.422562 Z"
       fill="red"
       id="star" />
    <ellipse
       style="stroke-width:0.26458332"
       fill="cyan"
       ry="37.419643"
       rx="35.907738"
       cy="60.00893"
       cx="165.93155"
       id="ellipse" />
    <path
       id="spiral"
       d="m 79.510163,189.25993 c 1.211659,3.74602 -4.384927,4.51279 -6.6627,3.48701 -5.800307,-2.61211 -5.807974,-10.46554 -2.54548,-15.03018 5.469891,-7.65306 16.677135,-7.30413 23.397662,-1.60395 9.584315,8.12917 8.843735,22.95518 0.662421,31.76514 -10.728338,11.55271 -29.259232,10.40354 -40.132623,-0.2791 -13.539844,-13.30232 -11.974207,-35.5764 1.220638,-48.50011 15.863513,-15.53754 41.901167,-13.55132 56.867589,2.16217 17.54173,18.41736 15.13255,48.23078 -3.1037,65.23506 -20.966604,19.55019 -54.563666,16.71658 -73.602548,-4.04522 -21.561571,-23.51278 -18.302546,-60.89887 4.986756,-81.97003 26.056802,-23.57507 67.235782,-19.88996 90.337512,5.92829 18.80012,21.01082 22.30776,52.2298 9.67146,77.26359"
       fill="none"
       stroke="green"
       style="stroke-width:5;" />
  </g>
</svg>
